<?xml version="1.0" encoding="utf-8"?>
<!-- Generator: Adobe Illustrator 23.0.3, SVG Export Plug-In . SVG Version: 6.00 Build 0)  -->
<svg version="1.1" id="Layer_1" xmlns="http://www.w3.org/2000/svg" xmlns:xlink="http://www.w3.org/1999/xlink" x="0px" y="0px"
	 width="359px" height="198px" viewBox="0 0 359 198" style="enable-background:new 0 0 359 198;" xml:space="preserve">
<style type="text/css">
	.st0{fill:#FFFFFF;}
	.st1{fill:none;stroke:#004E29;stroke-width:6;stroke-miterlimit:10;}
	.st2{fill:#B3B3B3;stroke:#000000;stroke-width:2;stroke-miterlimit:10;}
	.st3{fill:none;stroke:#000000;stroke-width:2;stroke-miterlimit:10;}
	.st4{fill:none;stroke:#000000;stroke-width:5;stroke-miterlimit:10;}
	.st5{fill:none;stroke:#000000;stroke-width:3;stroke-miterlimit:10;}
	.st6{opacity:0.3;fill:#808080;enable-background:new    ;}
	.st7{opacity:0.9;fill:#C9DCFF;enable-background:new    ;}
	.st8{fill:none;stroke:#000000;stroke-miterlimit:10;}
	.st9{font-family:'Roboto-Regular';}
	.st10{font-size:3.7162px;}
</style>
<rect class="st0" width="359" height="198"/>
<g id="Group_600" transform="translate(-257.278 -431.653)">
	<path id="Path_125" class="st1" d="M438.21,532.38l-43.49-7.2"/>
	<path id="Path_126" class="st2" d="M508.03,588.05c-0.73,1.17-1.86,2.03-3.17,2.43l-109.92,17.84c-1.51,0.03-2.99-0.43-4.21-1.32
		c-2-1.47-2.71-4.65-2.8-5.09c-0.78-3.9-7.33-43.48-16.06-97.77l-5.58-32.81c0.03-1.66,0.65-3.26,1.76-4.5
		c1.36-1.45,3.27-2.27,5.25-2.26c57.53-9.32,99.47-15.95,104.51-16.7c2.28-0.48,4.65-0.11,6.67,1.04c1.27,0.85,2.27,2.04,2.89,3.43
		c12.1,74.22,20.86,128.41,21.31,131.48C508.95,585.26,508.72,586.75,508.03,588.05z"/>
	<path id="Path_127" class="st2" d="M503.45,593.04c-0.81,1.11-2,1.89-3.34,2.19l-110.93,9.76c-1.51-0.08-2.95-0.65-4.11-1.62
		c-1.89-1.61-2.35-4.83-2.42-5.29c-0.5-3.94-4.13-43.9-8.87-98.68l-3.17-33.13c0.15-1.65,0.89-3.2,2.08-4.36
		c1.46-1.35,3.42-2.03,5.41-1.87c58.06-5.09,100.36-8.64,105.46-9.01c2.31-0.32,4.65,0.23,6.58,1.52c1.2,0.94,2.11,2.2,2.63,3.63
		c6.64,74.91,11.41,129.59,11.63,132.69C504.56,590.32,504.23,591.79,503.45,593.04z"/>
	<path id="Path_128" class="st2" d="M498.69,598.57c-0.9,1.04-2.16,1.71-3.52,1.89H383.81c-1.49-0.21-2.88-0.91-3.95-1.97
		c-1.74-1.77-1.93-5.02-1.94-5.48c-0.15-3.97-0.27-44.1-0.19-99.08c-0.08-11.09-0.17-22.19-0.25-33.28
		c0.34-1.48,1.13-2.81,2.25-3.82c1.6-1.34,3.68-1.97,5.75-1.73c58.28,0.01,100.74,0.19,105.84,0.26c2.33-0.11,4.61,0.63,6.42,2.1
		c1.11,1.04,1.91,2.38,2.31,3.85c0.05,75.2,0.01,130.09-0.04,133.2C500.04,595.96,499.58,597.39,498.69,598.57z"/>
	<rect id="Rectangle_299" x="437.48" y="477.58" class="st3" width="54.49" height="35.07"/>
	<line id="Line_3" class="st3" x1="384.85" y1="519.77" x2="492.84" y2="519.77"/>
	<line id="Line_4" class="st3" x1="384.85" y1="526.89" x2="492.84" y2="526.89"/>
	<path id="Path_129" class="st3" d="M384.85,477.57l47.24,0.01"/>
	<path id="Path_130" class="st3" d="M384.85,484.69h47.05"/>
	<path id="Path_131" class="st3" d="M384.67,491.46l47.24,0.01"/>
	<path id="Path_132" class="st3" d="M384.67,498.58h47.05"/>
	<path id="Path_133" class="st3" d="M384.5,505.53l47.24,0.01"/>
	<path id="Path_134" class="st3" d="M384.5,512.69l47.24,0.01"/>
	<path id="Path_135" class="st4" d="M424.58,512.65h6.97"/>
	<path id="Path_136" class="st3" d="M436.77,534.53l56.08,0.01"/>
	<path id="Path_137" class="st3" d="M436.77,541.82h55.85"/>
	<line id="Line_5" class="st3" x1="384.33" y1="570.3" x2="492.32" y2="570.3"/>
	<line id="Line_6" class="st3" x1="384.33" y1="577.39" x2="492.32" y2="577.39"/>
	<path id="Path_138" class="st3" d="M384.33,584.33h46.83"/>
	<rect id="Rectangle_300" x="385.39" y="534.49" class="st3" width="45.37" height="28.9"/>
	<path id="Path_139" class="st3" d="M436.94,549.64l56.08,0.01"/>
	<path id="Path_140" class="st3" d="M436.94,556.93h55.85"/>
	<path id="Path_141" class="st3" d="M436.94,563.53h55.85"/>
	<path id="Path_142" class="st3" d="M437.6,512.65l16.58-13.21l3.51,3.31l7.74-11.2l4.92-1.51l4.58,1.24l11.12-3.62l5.42-4.58"/>
	<path id="Path_143" class="st3" d="M492.01,512.65c-0.01-11.97-0.02-23.95-0.03-35.93"/>
	<rect id="Rectangle_301" x="388.29" y="545.46" width="6.38" height="15.55"/>
	<rect id="Rectangle_302" x="396.61" y="554.63" width="6.38" height="6.38"/>
	<rect id="Rectangle_303" x="404.94" y="546.85" width="6.38" height="14.33"/>
	<rect id="Rectangle_304" x="413.26" y="549.29" width="6.38" height="11.88"/>
	<rect id="Rectangle_305" x="421.58" y="537.05" width="6.38" height="24.13"/>
	<path id="Path_144" class="st5" d="M493.16,530.93c3.96-5.16,10.53-5.88,13.67-3.39c3.41,2.72,3.98,10.21-1.4,15.12"/>
	<path id="Path_145" class="st5" d="M384.17,531.07c-3.97-5.16-10.53-5.88-13.67-3.39c-3.41,2.72-3.98,10.21,1.4,15.12"/>
	<circle id="Ellipse_1" class="st6" cx="408.68" cy="530.04" r="23.86"/>
	<circle id="Ellipse_2" class="st6" cx="469.56" cy="530.04" r="23.86"/>
	<path id="Path_146" class="st7" d="M432.54,530.04c-0.89,2.59-4.01,5.12-5.14,4.57c-0.83-0.41-0.14-2.29-0.55-5.59
		c-0.29-3.12-1.47-6.09-3.4-8.56c-0.87-1.01-4.31-5.06-8.45-4.06c-2.8,0.66-4.84,3.06-5.05,5.92c0.08,3.42,2.8,6.19,6.22,6.33
		c2.94-0.22,3.97-4.25,5.84-3.81c1.4,0.33,2.31,3.13,1.76,5.27c-0.11,0.69-0.45,1.33-0.95,1.82c-1.66,1.44-4.1-0.44-5.85,0.81
		c-1.09,0.8-1.54,2.23-1.1,3.51c1.18,2.2,8.22,1.92,10.09-1.11c0.66-1.07,0.8-2.67,1-2.64s-0.17,1.77,0.43,2.11
		c1,0.56,3.75-3.49,4.36-3.03c1,0.75-1.59,6.03-3.81,9.39c-0.9,1.47-1.97,2.83-3.18,4.06c-2.73,2.63-6.03,4.58-9.65,5.7
		c-7.54,2.4-15.8,1.26-16.18-0.64c-0.13-0.65,0.72-1,1.89-3.64c0.39-0.87,0.67-1.78,0.82-2.72c0.09-0.55,0.03-0.5,0.09-0.69
		c0.47-1.61,3.5-2.15,5.27-2.51c2.45-0.51,3.49,0.09,4.67-0.88c1.03-1.09,1.57-2.56,1.48-4.06c0.28-2.17-0.5-4.34-2.08-5.85
		c-1.85-1.57-4.48-1.82-6.59-0.62c-2.72,1.83-2.14,5.99-1.32,7.9c0.33,0.87,0.88,1.64,1.59,2.24c1.17,0.94,2.09,0.74,2.25,1.27
		c0.41,1.34-5.12,4.42-5.63,3.81c-0.12-0.14,0.12-0.38,0.06-0.91c-0.13-0.63-0.49-1.18-1.01-1.54c-1.38-1.15-4.17-3.48-3.87-4.46
		c0.26-0.87,2.76-0.24,3.4-1.51c0.35-0.91,0.02-1.94-0.79-2.48c-1.15-0.64-2.42,0.96-3.42,0.43c-1.28-0.69-1.34-4.52,0.26-5.51
		c1.34-0.84,2.95,0.87,4.43-0.1c0.96-0.68,1.37-1.9,1.03-3.02c-0.34-0.7-0.95-1.23-1.7-1.46c-2.51-0.7-5.19,0.14-6.85,2.15
		c-1.24,1.69-1.82,3.78-1.61,5.87c0,0-0.04,5.6,6.32,12.53c0.51,0.68,1.28,1.12,2.13,1.2c0.46-0.01,0.9-0.15,1.27-0.42
		c0.12-0.32,0.12-0.63,0.36-0.77c0.19-0.1,0.43-0.09,0.61,0.03c0.6,0.5-0.99,5.07-3.05,5.73c-3.75,1.21-14-8.98-14.11-20.06
		c-0.12-12.1,11.85-24.16,23.86-23.86C423.81,506.55,434.98,522.94,432.54,530.04z"/>
	<path id="Path_147" class="st7" d="M493.42,530.04c-0.08,9.34-7.03,16.02-7.36,16.33c-5.55,5.19-14.52,8.69-17.07,6.07
		c-1.97-2.03-0.81-8.4,0.74-11.31c0.44-0.77,0.77-1.61,0.97-2.47c0.32-1.53,0.3-3.12-0.07-4.64c-0.81-3.88-2.25-7.6-4.27-11.01
		c-1.55-2.55-2.35-3.83-3.82-4.42c-3.01-1.21-6.12,0.81-6.37,0.97c-3.31,2.11-4.29,6.51-2.18,9.82c0.61,0.95,1.43,1.74,2.4,2.31
		c1.62,0.84,3.52,0.98,5.24,0.37c1.81-0.67,2.15-1.88,3-1.72c1.88,0.34,3.44,6.81,1.27,8.54c-2.3,1.83-7.6-2.62-9.02-0.99
		c-0.76,0.87-0.07,3.1,1.23,4.21c0.55,0.47,0.99,0.56,4.19,0.97c4.04,0.53,4.78,0.58,5.62,0.07c1.33-0.8,1.4-2.09,1.8-2.02
		c1.03,0.19,2.15,9.39-1.65,11.46c-2.41,1.31-5.81-0.78-8.24-2.32c-3.34-2.12-13.81-8.73-14.15-20.22
		c-0.37-12.7,11.83-23.75,23.86-23.86c11.8-0.11,23.23,10.32,22.26,17.12c-0.56,3.93-5.37,7.38-6.74,6.67
		c-0.78-0.41-0.8-2.36-0.82-5.77c-0.02-2.54,0.23-3.8-0.6-4.42c-0.8-0.49-1.81-0.43-2.55,0.15c-0.57,0.62-0.85,1.46-0.76,2.3
		c-0.2,3.74,0.84,6.02,0.24,6.36c-0.37,0.21-1.2-0.42-1.72-1.03c-1.96-2.27-0.4-5-1.95-6.37c-1.29-0.95-3.08-0.86-4.27,0.23
		c-1.23,1.44,0.37,4.32,1.01,5.46c0.9,1.82,2.39,3.27,4.23,4.12c1.83,0.74,2.72,0.19,3.44,1.02c1.22,1.41,0.4,4.95-1.27,5.57
		c-1.85,0.69-3.86-2.55-5.54-1.72c-0.88,0.61-1.3,1.69-1.07,2.74c0.47,2.35,4.51,3.62,7.58,3.33c1.77-0.04,3.45-0.76,4.71-2.01
		c1.98-2.28,1.82-6.41-0.67-9.97c2.71-3.72,5.38-5.75,6.89-5.09S493.43,528.63,493.42,530.04z"/>
	<path id="Path_148" class="st5" d="M432.71,530.67c-0.37,12.86-11.68,22.88-24.27,22.88s-23.9-10.02-24.27-22.88
		c-0.38-13.32,11.13-24.27,24.27-24.27S433.09,517.34,432.71,530.67z"/>
	<path id="Path_149" class="st5" d="M493.56,530.8c-0.37,12.86-11.68,22.88-24.27,22.88s-23.9-10.02-24.27-22.88
		c-0.38-13.32,11.14-24.27,24.27-24.27C482.42,506.53,493.94,517.48,493.56,530.8z"/>
	<path id="Path_150" class="st5" d="M432.71,530.67c3.53-3.13,8.86-3.07,12.32,0.13"/>
	<path id="Rectangle_306" class="st8" d="M387.86,461.62h101.27c2.05,0,3.71,1.66,3.71,3.71v0c0,2.05-1.66,3.71-3.71,3.71H387.86
		c-2.05,0-3.71-1.66-3.71-3.71v0C384.15,463.28,385.81,461.62,387.86,461.62z"/>
	<text transform="matrix(1 0 0 1 387.9577 466.0515)" class="st9 st10">https://</text>
</g>
</svg>
